<svg xmlns="http://www.w3.org/2000/svg" xmlns:xlink="http://www.w3.org/1999/xlink" width="640" height="360" viewBox="0 0 640 360">
  <defs>
    <linearGradient id="linear-gradient" x1="0.752" y1="0.418" x2="0.168" y2="1.072" gradientUnits="objectBoundingBox">
      <stop offset="0" stop-color="#5fd9dd"/>
      <stop offset="1" stop-color="#2c92ef"/>
    </linearGradient>
    <linearGradient id="linear-gradient-2" x1="0.5" y1="0" x2="0.5" y2="1" xlink:href="#linear-gradient"/>
  </defs>
  <g id="Groupe_451" data-name="Groupe 451" transform="translate(-70 -844)">
    <g id="Groupe_421" data-name="Groupe 421" transform="translate(0 20)">
      <g id="Rectangle_162" data-name="Rectangle 162" transform="translate(70 824)" stroke="#333" stroke-width="1">
        <rect width="640" height="360" stroke="none"/>
        <rect x="0.5" y="0.5" width="639" height="359" fill="none"/>
      </g>
      <g id="Groupe_94" data-name="Groupe 94" transform="translate(483.687 946.772)">
        <g id="Ellipse_85" data-name="Ellipse 85" transform="translate(0 8.684)" fill="#1a1a1a" stroke="#333" stroke-width="10">
          <ellipse cx="53.278" cy="53.278" rx="53.278" ry="53.278" stroke="none"/>
          <ellipse cx="53.278" cy="53.278" rx="58.278" ry="58.278" fill="none"/>
        </g>
        <path id="Union_14" data-name="Union 14" d="M3.351,63.122A10.413,10.413,0,0,1,18.077,48.395L31.312,61.63,89.591,3.352a10.413,10.413,0,0,1,14.727,14.727L31.541,90.855l-.049-.049-.229.229Z" transform="translate(24.054)" fill="url(#linear-gradient)"/>
      </g>
      <g id="Groupe_420" data-name="Groupe 420" transform="translate(152.892 899)">
        <path id="Soustraction_43" data-name="Soustraction 43" d="M133,110.148H110.31v-8.562L133,104.7v5.448h0Zm-26.569,0h-.778L82.94,106.525l-.634-8.782,22.741,3.121,1.382,9.284Zm-77.787,0H0v-8.8l28.642,6.123v2.676Zm44.388-5.2-22.777-3.633,1.034-7.824L73.75,96.569l-.719,8.375ZM28.642,97.863,0,93.294V86.448l28.642,3.93v7.483ZM133,97.682,110.31,94.875V84.209l22.689,2V97.681ZM104.04,94.1l-51.983-6.43,1.124-8.506,49.283,4.353L104.04,94.1Zm-75.4-9.327L0,81.229V74.466L28.642,77v7.776ZM133,83.029l-22.689-2V69.206L133,70.412V83.028Zm-31.014-2.739L81.361,78.468c-.387-3.351-.778-7.005-1.162-10.862l20.056,1.066,1.729,11.617ZM73.755,77.8,53.6,76.016l1.289-9.755,19.908,1.058c-.454,4.04-.8,7.565-1.04,10.477ZM28.642,73.812,0,71.282V63.344l28.642,1.522v8.946ZM133,68.824h0L110.31,67.618V22.894H133v45.93Zm-32.982-1.753L80.041,66.009C79.354,59,78.658,51.054,77.973,42.4c-1.25,9.06-2.259,16.911-3,23.337L55.1,64.684l5.524-41.79H93.44ZM46.331,63.884H40.048L0,61.756V0H48.508V22.043H28.642V42.93H46.331Z" transform="translate(109.719 45.308)" fill="#fff" stroke="rgba(0,0,0,0)" stroke-miterlimit="10" stroke-width="1"/>
        <path id="Soustraction_42" data-name="Soustraction 42" d="M.552,209.182h0C0,209,0,208.629,0,207.893c0-.355.173-.736.552-.736a.826.826,0,0,0,.6-.422.8.8,0,0,0-.045-.683.657.657,0,0,0-.092-.276.658.658,0,0,1-.092-.276.808.808,0,0,0,.184-.552,5.316,5.316,0,0,1,1.528-1.771c.245-.215.475-.417.681-.623a1.587,1.587,0,0,0,.529-.588,3.179,3.179,0,0,1,.391-.517c.123-.184.247-.392.367-.592a6,6,0,0,1,.737-1.065,1.694,1.694,0,0,1,.339-.221c.2-.109.4-.221.4-.331a1.728,1.728,0,0,1,.73-1.292l0,0c.067-.062.13-.12.189-.179a1.923,1.923,0,0,0,1.289-1.841v-.737a8.372,8.372,0,0,1-.753,1.021,5.2,5.2,0,0,0-.9,1.373H6.445a2.017,2.017,0,0,0,.184-.921,8.624,8.624,0,0,0,.921-1.841.181.181,0,0,0,.184-.184,4.334,4.334,0,0,0,1.348-1.574,9.869,9.869,0,0,1,.678-1,1.384,1.384,0,0,0,.369-.737,1.394,1.394,0,0,1,.736-1.289,7.214,7.214,0,0,0,.737-.921,7.223,7.223,0,0,1,.737-.921,7.516,7.516,0,0,0,.921-1.657,12.675,12.675,0,0,1,1.493-1.758c.354-.368.719-.749,1.085-1.188a1.383,1.383,0,0,0,.368-.737,4.384,4.384,0,0,1,.778-1.042,4.986,4.986,0,0,0,.511-.615,15.127,15.127,0,0,0,1.017-1.612l0,0c.142-.248.289-.5.454-.777.185-.37.373-.792.554-1.2s.367-.827.551-1.194a1.015,1.015,0,0,0,.552-.921,2.183,2.183,0,0,0,.737-1.289c.542-1.085,1.1-2.206,1.657-3.5.923-1.477,1.671-2.785,2.394-4.051a4.4,4.4,0,0,1,.422-.524,2.042,2.042,0,0,0,.5-.766c0-.152.127-.179.274-.209.206-.043.462-.1.462-.527a1.112,1.112,0,0,1,.184-.736,7.244,7.244,0,0,1,.921-1.719,11.752,11.752,0,0,0,.737-1.228,2.393,2.393,0,0,1,.379-.484,4.265,4.265,0,0,0,.726-.989c.056-.112.13-.242.208-.381a6.5,6.5,0,0,0,.528-1.092,2.379,2.379,0,0,1,.663-1.016,3.593,3.593,0,0,0,.626-.826,6.405,6.405,0,0,0,.659-1.894v0c.026-.106.051-.211.076-.312a33.418,33.418,0,0,0,1.473-3.867,3.228,3.228,0,0,1,1.473-1.657,3.474,3.474,0,0,1,1.473-.369,1.409,1.409,0,0,1,.368-.736c.144-.432.38-.7.616-.7a.436.436,0,0,1,.3.148.127.127,0,0,0,.094.036.958.958,0,0,0,.643-.773,4.908,4.908,0,0,1,.668-1.956,6.083,6.083,0,0,1,1.358-1.542c.235-.313.434-.623.646-.952A16.1,16.1,0,0,1,42.9,140.13a.97.97,0,0,0,.184-.276.968.968,0,0,1,.184-.277,2.671,2.671,0,0,1,.368.552,6.736,6.736,0,0,0,2.578-1.289,6.284,6.284,0,0,1-1.472-.552,3.594,3.594,0,0,0,.467-.4,1.891,1.891,0,0,1,1.373-.7,2.141,2.141,0,0,0,1.289-.921,2.882,2.882,0,0,1,.752-1.39,4.982,4.982,0,0,0,.353-.451,4.894,4.894,0,0,0,.449-.655l8.1,1.733c-.08.234-.175.456-.267.672a6.614,6.614,0,0,0-.368,1.013h-.552a1.212,1.212,0,0,1-.115.495.662.662,0,0,0-.068.242c0,.369,0,.369-.184.552-.092,0-.092.092-.092.23a1.083,1.083,0,0,1-.092.506,3.867,3.867,0,0,1,.529-.621,1.91,1.91,0,0,0,.392-.484c0-.2.22-.348.454-.5a1.308,1.308,0,0,0,.467-.419l.184.368a7.219,7.219,0,0,1-.483,1.174c-.31.649-.543,1.036-.621,1.036-.236,0-.32.223-.4.439a.861.861,0,0,1-.152.3c-.184.368-.418.743-.644,1.1s-.461.737-.645,1.105a10.607,10.607,0,0,1-.184-2.578,2.252,2.252,0,0,0-.184-1.841,3.762,3.762,0,0,0-.415,2.5c.023.262.047.532.047.811a2.572,2.572,0,0,1-.468.167,1.024,1.024,0,0,0-.453.2c0,.485.055.7.209.806a1.725,1.725,0,0,0,.9.115,1.6,1.6,0,0,1-.736,1.842,3.078,3.078,0,0,0-.517.882,5.55,5.55,0,0,1-.4.775,1.37,1.37,0,0,1-.46-.092,1.371,1.371,0,0,0-.46-.092c0,1.109,0,1.841-1.289,2.025a.815.815,0,0,1-.384-.167c-.1-.061-.211-.13-.352-.2-.184.184-.184.184-.184.368-.136.181-.247.358-.354.529-.276.44-.494.788-.9.788a.9.9,0,0,1-.216-.029c-.167.125-.346.243-.519.356-.607.4-1.18.774-1.322,1.485a1.632,1.632,0,0,1-.736.921.864.864,0,0,0-.207.829,2.246,2.246,0,0,1,.023.276.97.97,0,0,1,.276-.184.97.97,0,0,0,.277-.185.7.7,0,0,1,.227.7.406.406,0,0,1-.412.223,1.977,1.977,0,0,0-.92.276,1.977,1.977,0,0,1-.921.276c-.184.184-.184.184-.184.369a2.985,2.985,0,0,1-.865,1.9c-.074.1-.159.2-.24.312l-1.1,1.657a9.167,9.167,0,0,0-1.657,2.394,2.65,2.65,0,0,0-.86,1.47c-.021.064-.041.126-.061.187a5.165,5.165,0,0,1-1.657,2.394v-2.394a2.118,2.118,0,0,0-.2,1.532,3.094,3.094,0,0,1,.016,1.046c-1.289.552-1.663,1.862-2.025,3.129,0,.183,0,.37-.184.37-.675.27-.758.946-.824,1.489a2.94,2.94,0,0,1-.1.537c-.086.431-.131.817-.175,1.191a9.419,9.419,0,0,1-.193,1.2v.184c-.211.141-.392.253-.552.352a3.313,3.313,0,0,0-.553.385,8.99,8.99,0,0,1-.552,1.289,1.974,1.974,0,0,1-.334-1.72,1.694,1.694,0,0,0-.219-1.41,1.2,1.2,0,0,0-.2.535,2.492,2.492,0,0,1-.173.57.582.582,0,0,0-.184-.368,2.192,2.192,0,0,0-.172.207,1.7,1.7,0,0,1-.564.529,3.167,3.167,0,0,0,.921.368c.184.184.184.739.184.921a1.621,1.621,0,0,1,0,1.519,3.935,3.935,0,0,1-1.1,1.243,1.407,1.407,0,0,0-.552.368c-.552.552-.552.552-1.473.736a.786.786,0,0,1,.544.536.6.6,0,0,1-.176.569,3.142,3.142,0,0,0-1.1,1.1l-.369.369c-.376.751-.739,1.29-1.289,1.473a2.553,2.553,0,0,1-.737.552,5.87,5.87,0,0,1-2.21,2.025,4.055,4.055,0,0,1-.276.46,4.081,4.081,0,0,0-.276.46.867.867,0,0,0-.137.207.948.948,0,0,1-.6.529,7.719,7.719,0,0,1-.529.864,6.945,6.945,0,0,0-.76,1.346v.184c-.161.215-.32.442-.488.683a12.471,12.471,0,0,1-1.353,1.711c-.11.164-.219.312-.324.454a3.61,3.61,0,0,0-.6,1.019,11.411,11.411,0,0,1-2.578,3.315,4.027,4.027,0,0,1-.552.921c-.091-.455-.279-.715-.518-.715-.2,0-.418.194-.587.531-.395.395-.782.833-1.155,1.258-.315.358-.613.7-.87.952a2.475,2.475,0,0,1-1.473,1.289,4.922,4.922,0,0,0-1.842,1.1,1.593,1.593,0,0,0-1.1,2.025,1.433,1.433,0,0,1-.092.368,1.435,1.435,0,0,0-.092.368,1.084,1.084,0,0,0,.368.921,7.75,7.75,0,0,0-2.21,1.473,1.7,1.7,0,0,1-.339.221c-.2.109-.4.221-.4.331-.126.251-.347.521-.537.521a.228.228,0,0,1-.2-.153,4.228,4.228,0,0,0-2.141.688c-.143.079-.29.159-.436.232Zm28.541-34.8a4.033,4.033,0,0,1-.736.92c-.2.124-.384.232-.548.327-.559.324-.928.538-1.017.906s.1.857.644,1.714c.049-.024.1-.049.155-.074l.006,0a1.546,1.546,0,0,0,.944-.843h.02c.195,0,.464-.015.546-.149a.22.22,0,0,0-.014-.22c-.181-.181-.368-.368-.552-.368a1.112,1.112,0,0,0-.736-.184v-.184h1.473c.046-.139.081-.267.115-.392a4.945,4.945,0,0,1,.621-1.45Zm.921,2.21a3.6,3.6,0,0,1-.352.151.971.971,0,0,0-.385.217l.368.369h.369Zm4.788-9.575a4.228,4.228,0,0,0-1.352,1.208,4.217,4.217,0,0,1-1.042,1,1.394,1.394,0,0,1-.184,1.473c-.548.914-.375,1.46.184,2.578a.68.68,0,0,1,.552-.184,2.348,2.348,0,0,1,0-2.21c.367-.184.552-.369.552-.552a1.438,1.438,0,0,1,.368-1.473A3.022,3.022,0,0,0,34.8,167.015Zm-9.207.921a3.582,3.582,0,0,0-.151.352.969.969,0,0,1-.217.384h.184c.114,0,.157-.07.218-.168a1.025,1.025,0,0,1,.151-.2c-.184,0-.184,0-.184-.368Zm11.6-7.55a1.415,1.415,0,0,0-.077,1.365c.025.092.05.187.077.292v-1.657Zm2.025-1.473a2.421,2.421,0,0,1-.068.483,4.514,4.514,0,0,0-.115.99,2.418,2.418,0,0,1,1.1-.831c.067-.031.13-.06.188-.089a1.613,1.613,0,0,0-.834-.466C39.418,158.976,39.325,158.947,39.221,158.912ZM52.664,142.34h0l0,0a23.984,23.984,0,0,0-2.022,2.206c-.181.181-.368.368-.368.552.1.385.306.573.641.573a1.62,1.62,0,0,0,.182-.013c.038,0,.071-.008.1-.008h.368v-.368a1.383,1.383,0,0,0-.368-.737h1.473a1.009,1.009,0,0,1-.346-.774.7.7,0,0,1,.346-.515,1.112,1.112,0,0,0,.184-.736l-.184-.184ZM4.419,199.975h0a.181.181,0,0,1-.183-.184.24.24,0,0,1,.092-.184.241.241,0,0,0,.092-.184l.184.184c-.184,0-.184.187-.184.368Zm.738-.736h0l.172-.172.005-.005.559-.559A.676.676,0,0,1,5.157,199.239Zm85.072-3.5h0a6.139,6.139,0,0,1-.184-3.13,1.713,1.713,0,0,1-.921-1.842V189.48l-.086-.429a24.621,24.621,0,0,1-.651-5.1,1.4,1.4,0,0,0,.184-.736.679.679,0,0,0-.184-.552,1.662,1.662,0,0,0-.184.921,5.528,5.528,0,0,1-1.269-3.192l-.02-.123a17.278,17.278,0,0,0-.736-2.946,9.053,9.053,0,0,0-.082-.952,11.156,11.156,0,0,1-.1-1.258,9.623,9.623,0,0,0-.369-1.147c-.06-.161-.123-.327-.184-.51a5.887,5.887,0,0,1-.552-2.578,1.71,1.71,0,0,1-.2-.668,1.366,1.366,0,0,0-.353-.805v-1.1h0a.275.275,0,0,1,.172.068.564.564,0,0,0,.379.116.642.642,0,0,1,.368-.184l-.184-.368H84.52v0c0,.061-.018.366-.184.366a1.425,1.425,0,0,0-.368-.552.671.671,0,0,1-.444-.344.7.7,0,0,1,.075-.577c.184-.551.182-.739-.184-1.1a2.209,2.209,0,0,0-.207-.172,1.7,1.7,0,0,1-.53-.564,2.931,2.931,0,0,1-.422-1.018c-.037-.143-.076-.291-.131-.456a4.984,4.984,0,0,0-.921-2.025,1.89,1.89,0,0,1-.184-2.21,1.113,1.113,0,0,0-.184-.736,2.736,2.736,0,0,1-.184-1.1,5.055,5.055,0,0,1-.143-.593,2.092,2.092,0,0,0-.409-1.064c-.137-.32-.287-.631-.431-.931a6.42,6.42,0,0,1-.858-2.751,4.9,4.9,0,0,0-.552-1.815,6.367,6.367,0,0,1-.369-.947c-.035-.106-.077-.217-.121-.334a2.468,2.468,0,0,1-.248-1.507v-.184c-.015-.073-.029-.144-.043-.212l0-.017a2.508,2.508,0,0,1,.231-2.164c.117-.117.085-.39.046-.705a4.9,4.9,0,0,1-.046-.583,2.084,2.084,0,0,1-1.289-2.21v-1.883l5.344,1.142-.924.924a3.678,3.678,0,0,1,.725.116,2.3,2.3,0,0,0,.38.069,7.056,7.056,0,0,0-.1.775,2.8,2.8,0,0,1-.5,1.647c.034-.016.073-.031.11-.046a.865.865,0,0,0,.3-.167,3.068,3.068,0,0,0,.038.393,1.615,1.615,0,0,1-.038.9,3.694,3.694,0,0,1-.368.736,3.7,3.7,0,0,0-.369.737,2.611,2.611,0,0,1,.384.537c.208.35.387.653.823.653a1.433,1.433,0,0,0,.45-.085c0,.183-.187.37-.367.551a4,4,0,0,0,.551.922,1.442,1.442,0,0,0,.552.184c.578.192.736.39.736.921a7.139,7.139,0,0,0,.184,1.381,7.143,7.143,0,0,1,.184,1.381,7,7,0,0,0,.079.907,4.3,4.3,0,0,1-.079,2.039,2.093,2.093,0,0,0-.41,1.065,5.06,5.06,0,0,1-.143.593c-.184,0-.184.187-.184.368,0,.461.138.737.368.737.181,0,.367-.365.369-.368.229-.343.3-.531.267-.668-.026-.1-.106-.172-.267-.253a1.231,1.231,0,0,1,.4-.855,4.66,4.66,0,0,0,.335-.434c.106.636.271,1.265.431,1.873.117.446.228.867.306,1.257a8.67,8.67,0,0,0,.1,1.155,6.949,6.949,0,0,1,.082.87.67.67,0,0,0-.035.564.611.611,0,0,1,.035.173,2.985,2.985,0,0,1,.552,1.657.929.929,0,0,1,.184.368.929.929,0,0,0,.184.369q.025.1.05.2a4.013,4.013,0,0,1,.134,2.011,1.8,1.8,0,0,1-.208-.13.867.867,0,0,0-.461-.2c-.208,0-.411.169-.62.517a.361.361,0,0,0,.365.292,1.863,1.863,0,0,0,.609-.173c.1-.041.21-.083.315-.119a8.916,8.916,0,0,0-.552,1.289c.368.552.368.552-.184,1.473a1.891,1.891,0,0,1,.552,2.578h.921c-.368.368-.552.553-.552.737s.185.368.552.736a.8.8,0,0,1-.137.311,1.305,1.305,0,0,0-.231.61.987.987,0,0,1,.552.737v6.445a.839.839,0,0,1,.472-.158,1.552,1.552,0,0,1,.622.186,3.918,3.918,0,0,0,.38.156c.138,0,.278.315.414.62.045.1.092.208.139.3a2.739,2.739,0,0,1-1.1.184.68.68,0,0,1-.184.552h.921c0,.182,0,.735.184.921h.921c.1.343.211.678.32,1a8.565,8.565,0,0,1,.6,2.866,1.971,1.971,0,0,0-.921-.552,4.708,4.708,0,0,0-.657.88c-.081.128-.165.26-.264.409.729.547.555,1.1.184,2.025a2.737,2.737,0,0,1,1.1.184,1.313,1.313,0,0,0-.552,1.1H91.7a6.675,6.675,0,0,1-.368,2.025c-.077.115-.145.23-.211.341C90.877,195.386,90.666,195.74,90.229,195.74Zm-8.471-47.508a.181.181,0,0,1-.184.184l.184.368v.184h.184a1.432,1.432,0,0,0-.092-.368A1.431,1.431,0,0,1,81.758,148.232Zm10.312,42.9h0a3.869,3.869,0,0,1-1.1-.736,4.905,4.905,0,0,1,.553-.461,4.92,4.92,0,0,0,.552-.46v1.657Zm-2.211-12.524a2.733,2.733,0,0,1-.183-1.1h.184v1.1Zm0-1.47h0c-.371-.185-.557-.278-.576-.4s.119-.251.392-.525c.368.368.368.368.185.92Zm-1.288-.922h0c0-.55,0-.55.366-.733a.987.987,0,0,0-.214.383A3.605,3.605,0,0,1,88.572,176.22Zm.367-.735h0c-.183-.736-.183-.736.369-1.1a.73.73,0,0,1,.195.554c-.04.211-.239.335-.4.434a.989.989,0,0,0-.164.116Zm-.92-6.813h0c-.317-.211-.641-.462-.641-.719,0-.137.089-.262.273-.385.424.141.414.286.386.674-.008.116-.018.26-.018.43Zm-5.091-23.288c-.179,0-.319-.15-.482-.324-.043-.046-.088-.094-.135-.142l.121-.063a.935.935,0,0,1,.439-.149,1.019,1.019,0,0,1,.545.212v.184A.754.754,0,0,1,82.928,145.384Zm-24.74-7.831H58a6.929,6.929,0,0,1,.092-1.013,7.542,7.542,0,0,0,.091-.9l.074.016c.155.237.294.24.3.24l.144-.146.595.127a2.649,2.649,0,0,0-.922,1.308l-.184.368Zm23.18-3.473h0l-.832-.133a1.625,1.625,0,0,1,1.038-1.182,2.7,2.7,0,0,1-.294-1.335A1.952,1.952,0,0,0,80.837,130a6.955,6.955,0,0,0-.92.092,6.961,6.961,0,0,1-.921.092.177.177,0,0,0,.048.129.214.214,0,0,0,.136.055c.418.279.478.7.184,1.289-.033.066-.071.131-.111.2a.893.893,0,0,0-.073,1.09H79.2a.662.662,0,0,0,.535-.184c.368.184.368.184.368.368a.913.913,0,0,1-.184.368,1.318,1.318,0,0,0-.177.318l-4.048-.646-.01-.041a8.319,8.319,0,0,1-.552-2.946,1.558,1.558,0,0,0-.368-1.1,12.58,12.58,0,0,0-.844-2.238l5.08.7c0,.019,0,.042,0,.068a2.723,2.723,0,0,0,.184,1.289,1.094,1.094,0,0,1-.242.173,2.169,2.169,0,0,0-.5.379h.737c.126-.253.166-.421.118-.5a.128.128,0,0,0-.118-.053,1.371,1.371,0,0,1,.092-.46,1.371,1.371,0,0,0,.092-.46,2.59,2.59,0,0,1-.161-.408l.548.075a2.327,2.327,0,0,0,.193.556,1.324,1.324,0,0,1,.156.513c0,.735.184.921.737,1.1a1.4,1.4,0,0,1,.184-.736c-.4-.2-.569-.34-.577-.479-.008-.122.106-.25.393-.442a8.81,8.81,0,0,1,.871,2.9,6.285,6.285,0,0,1-.34,3.017Zm-.715-2.6h0l-.4-.4-.516-.516h0a1.082,1.082,0,0,0,.916-.366v1.287Zm-17.564-.312h0l-.481-.077V128.9a.181.181,0,0,1-.184-.184.24.24,0,0,1-.092.184.241.241,0,0,0-.092.184v1.946l-10.1-1.612a2.789,2.789,0,0,0,.255-.517,3.147,3.147,0,0,1,.273-.554c0-.318.154-.921.737-.921a3.468,3.468,0,0,0,1.289-1.1c.424-.636.863-1.294,1.258-1.942l7.868,1.08a.965.965,0,0,0-.287,1.23c0,.46-.047.928-.092,1.381s-.092.921-.092,1.381a9.075,9.075,0,0,0-.177,1.114c-.025.212-.048.411-.078.6Zm1.176-1.345h0a1.144,1.144,0,0,1-.2-1,2.846,2.846,0,0,0,.021-.287v-1.657a3.471,3.471,0,0,1-.184-1.4l2.506.344a.879.879,0,0,1-.112.139.663.663,0,0,1-.242-.069,1.209,1.209,0,0,0-.495-.116v.737a4.024,4.024,0,0,0-.921.552,3.012,3.012,0,0,1,.552,1.1,13.34,13.34,0,0,0-.92,1.656Zm16.388-1.841h0c-.027-.079-.054-.151-.085-.219l.179.025a.9.9,0,0,0-.094.195Zm.2-5.01h0l-.214-.026a2.318,2.318,0,0,0,.011-.3,1.008,1.008,0,0,1,.2.33Zm-.391-.048L58.5,120.2a16.742,16.742,0,0,1,1.784-2.317c.217-.25.441-.508.662-.773.252-.126.331-.511.416-.918a4.953,4.953,0,0,1,.137-.555c0-.046,0-.087,0-.123l16.309,1.44a2.3,2.3,0,0,0,.812.893c.181-.181.368-.368.368-.552.017-.066.033-.14.052-.231l2.156.19c0,.025,0,.041,0,.041-.092.276-.233.6-.368.921s-.276.644-.368.921a1.123,1.123,0,0,0-.424.832.915.915,0,0,0,.424.642h0a2.209,2.209,0,0,0-.605.115,1.318,1.318,0,0,1-.311.069,2.361,2.361,0,0,1,.918,2.123Zm-4.785-2.86c0,.184-.187.371-.368.552.4-.1.585-.146.608-.227S75.848,120.225,75.681,120.059ZM75.5,118.77a1.206,1.206,0,0,1-.253.345c-.069.069-.115.115-.115.207,0,.193.189.552.369.552a1.868,1.868,0,0,0,.184-.552A1.444,1.444,0,0,0,75.5,118.77Zm.368-.921-.184.368a1.209,1.209,0,0,1,.495.116.661.661,0,0,0,.242.069l-.362.362-.006.006-.184.184a2.23,2.23,0,0,0,.313.024,1.224,1.224,0,0,0,1.149-.787,2.652,2.652,0,0,1,.379-.526c-.161-.161-.286-.239-.382-.239-.12,0-.18.122-.239.239a.724.724,0,0,1-.115.184Zm5.466-3.766h0l-1.061-.094c.046-.049.092-.092.133-.129s.049-.045.066-.062a1.938,1.938,0,0,0,.369-.921c.609.609.836.837.494,1.206Zm-2.958-.261L64.426,112.59c.1-.177.184-.365.258-.53.046-.1.09-.2.133-.288a1.4,1.4,0,0,0,.184-.736c-.178-.535-.018-.909.552-1.289a4.079,4.079,0,0,0,1.236-1.473,5.841,5.841,0,0,1,.789-1.1.952.952,0,0,1,.04-.192,1.5,1.5,0,0,0,.073-.559l10.315.548a1.137,1.137,0,0,0-.117.571v1.473h0a3.036,3.036,0,0,0,.486-.056,3.474,3.474,0,0,1,.569-.064,1.038,1.038,0,0,1,.783.3c0,.231-.293.318-.552.395a.974.974,0,0,0-.369.158,2.136,2.136,0,0,1-.921,1.289,2.206,2.206,0,0,0,.207.172,1.7,1.7,0,0,1,.53.565,6.941,6.941,0,0,0-.184,2.025l-.071.024Zm-2.323-3.154c-.083.166-.125.29-.074.394.069.141.311.243.811.343l0,0c-.365-.366-.548-.55-.548-.734Zm5.156,1.473h0a2.118,2.118,0,0,0,.2-.681c.047-.306.076-.491.536-.606a.649.649,0,0,1,.127.537c-.068.255-.334.486-.863.751ZM79,111.957h-.184v-.921a.875.875,0,0,0,.3-.331,1.038,1.038,0,0,1,.989-.59c.07-.14.139-.252.2-.35a.82.82,0,0,0,.168-.386,2.5,2.5,0,0,0-.4-.671,2.745,2.745,0,0,1-.525-.986h.921a1.4,1.4,0,0,0,.737-.184c-.039.077-.077.145-.113.211a1.576,1.576,0,0,0-.255.894.888.888,0,0,1,.693.277.488.488,0,0,1,.043.46.564.564,0,0,1-.379-.116.276.276,0,0,0-.173-.069,3.635,3.635,0,0,1-.092.644,3.639,3.639,0,0,0-.092.645.805.805,0,0,1-.881.621,3.069,3.069,0,0,1-.593-.069,1.063,1.063,0,0,0-.244.52c-.031.106-.07.238-.124.4Zm-14.73-.552h0l-.184-.184a.657.657,0,0,1,.092-.276.659.659,0,0,0,.092-.277c.368.368.181.555,0,.736Zm14.23-6-10.54-.56.026-.066a2.719,2.719,0,0,1,1.071-1.476,1.022,1.022,0,0,0,.2-.451,2.574,2.574,0,0,1,.167-.469,1.977,1.977,0,0,0,.552-.921c.166,0,.271-.038.322-.116a.456.456,0,0,0,.046-.252,1.611,1.611,0,0,1,0-1.46,2.631,2.631,0,0,0,.183-1.3c0-.307.021-.64.041-.962a6.5,6.5,0,0,0-.041-1.8V92.806a36.943,36.943,0,0,1-1.1-6.261c-.1-.725-.265-1.446-.42-2.143-.122-.544-.236-1.057-.317-1.54-.369-2.03-.556-3.9-.736-5.708a9.207,9.207,0,0,1-.163-1,10.122,10.122,0,0,0-.39-1.95,10.9,10.9,0,0,1-.921-3.5v-.552a.61.61,0,0,1,.035-.172.67.67,0,0,0-.035-.564,3.388,3.388,0,0,1-.416-1.334c-.039-.226-.079-.459-.137-.691l-.076-.227,0-.009a4.281,4.281,0,0,1-.289-2.894.45.45,0,0,0-.137-.242.775.775,0,0,1-.231-.495A.814.814,0,0,1,65,62.976a1.451,1.451,0,0,0,.294-1.011,1.432,1.432,0,0,1,.442-1.2,1.554,1.554,0,0,1-.875-.691,1.37,1.37,0,0,1-.046-.967,5.725,5.725,0,0,0-.369-1.473V56.9a41.827,41.827,0,0,1-.383-7.69c.007-.621.015-1.262.015-1.885,0-.829-.047-1.625-.092-2.394s-.092-1.565-.092-2.394a.913.913,0,0,0-.184-.368.913.913,0,0,1-.184-.368,44.969,44.969,0,0,0-.552,7,2.561,2.561,0,0,1-.208-1.486c.012-.172.024-.349.024-.54a7.571,7.571,0,0,1-.184-2.026V41.063h-.184a5.154,5.154,0,0,0-.184,1.842c-.367-.184-.552-.37-.552-.552,0-.644-.047-1.253-.092-1.841s-.092-1.2-.092-1.842c-.092-.736-.139-1.438-.184-2.117s-.092-1.381-.184-2.118a20.316,20.316,0,0,1,.369-4.788v-.552a4.331,4.331,0,0,1-.383-2.465c.007-.218.015-.443.015-.665,0-.513-.04-1.109-.082-1.74-.05-.749-.1-1.523-.1-2.312A2.976,2.976,0,0,0,60.4,20.44a18.974,18.974,0,0,0-.46-2.209,18.946,18.946,0,0,1-.46-2.211,1.781,1.781,0,0,1,1.289-2.025c.075-.075.15-.143.223-.208a1.9,1.9,0,0,0,.7-1.081,2.558,2.558,0,0,1-.552-.736,2.849,2.849,0,0,1,1.1-.737c-.38.951-.545,1.481.184,2.21a3.591,3.591,0,0,0,.151-.352.969.969,0,0,1,.217-.384h0V11.233h.184c.372.558.179.929-.184,1.472h0a3.867,3.867,0,0,1,.735,1.1v0a1.615,1.615,0,0,0,.617-1.306,2.38,2.38,0,0,1,.3-1.087,1.014,1.014,0,0,0,.7.409,2.418,2.418,0,0,1,.409.143,1.755,1.755,0,0,0,1.289.368c2.1.21,3.621.386,4.788.552a.812.812,0,0,0,.311-.057.3.3,0,0,1,.1-.025.211.211,0,0,1,.143.082,1.9,1.9,0,0,0,1.341.631c.164.032.332.064.5.106.356.1.683.2,1,.3h0a15.165,15.165,0,0,0,2.5.618,3.415,3.415,0,0,0,1.289-.368,5.237,5.237,0,0,1,1.574-.4c.29-.043.564-.084.82-.148,0,.736,0,.736-1.1.921v.368c0,.092-.094.139-.184.184s-.184.092-.184.184H80.1a3.318,3.318,0,0,1,1.044-.184,2.366,2.366,0,0,1,1.719.737c.368.184.368.369.368.921a3.959,3.959,0,0,1,.037,1.424c-.019.221-.037.43-.037.6l.026.155,0,.009a2.834,2.834,0,0,1-.58,2.782.981.981,0,0,1,.572.128.3.3,0,0,0,.164.056,2.417,2.417,0,0,1-.069.484,4.5,4.5,0,0,0-.116.989H82.31c.028.083.051.16.073.235a1.389,1.389,0,0,0,.848,1.054.448.448,0,0,1,.4.156.4.4,0,0,1-.035.4,1.183,1.183,0,0,1-.748.26.794.794,0,0,1-.357-.076.5.5,0,0,0-.368-.092.5.5,0,0,1-.368-.092,2.463,2.463,0,0,0-.921,1.1,2.235,2.235,0,0,1-.335.266.691.691,0,0,0-.4.654h.368a.764.764,0,0,1,.76-.46,3.189,3.189,0,0,1,.467.047,2.966,2.966,0,0,0,.431.045.4.4,0,0,1,.368.368,1.8,1.8,0,0,1,.038.933,2.286,2.286,0,0,0-.038.356v.552a13.657,13.657,0,0,0,.737,2.578,1.382,1.382,0,0,1-.391,1.12,1.4,1.4,0,0,0-.346.721,4.3,4.3,0,0,1-.368,1.473,2.608,2.608,0,0,0,.551.184,2.607,2.607,0,0,1,.553.184c.195.778.166,1.3-.552,1.657a1.093,1.093,0,0,0-.261.812.462.462,0,0,0,.261.293,1.678,1.678,0,0,1,.563,1.655c-.005.121-.01.247-.01.37h.737c-.054.161-.092.292-.123.4a1.066,1.066,0,0,1-.245.523,1.074,1.074,0,0,0-.46-.184,1.076,1.076,0,0,1-.461-.184.423.423,0,0,0-.115.366.514.514,0,0,0,.3.37c.384.192.546.387.368.921a2.97,2.97,0,0,0-.443,1.179c-.03.141-.065.3-.109.478a1.184,1.184,0,0,0-.646.717,1.677,1.677,0,0,0,.277,1.309c.369.369.366.561.184,1.473H82.31a2.64,2.64,0,0,0-.647-.076,6.565,6.565,0,0,0-1.562.26,2.011,2.011,0,0,1-.921.184V45.3h-.037a1.549,1.549,0,0,0-1.068.368v1.1a.624.624,0,0,1-.191.037.191.191,0,0,1-.151-.058c-.08-.091-.056-.273-.039-.406a1.085,1.085,0,0,0,.012-.125v-1.1a.434.434,0,0,0-.236-.087c-.143,0-.244.115-.36.249a.872.872,0,0,1-.693.391V44.93a2.224,2.224,0,0,1-.61-.116,1.313,1.313,0,0,0-.31-.069c-.423,0-.735.036-.88.213-.125.153-.137.411-.041.891h.552a.591.591,0,0,1,.256-.072c.188,0,.3.161.3.441a2.683,2.683,0,0,0-.2.652,5.9,5.9,0,0,1-.167.637.657.657,0,0,1,.276.092.658.658,0,0,0,.276.092v0a3.615,3.615,0,0,1-.185,1.286.68.68,0,0,0-.184.552,2.684,2.684,0,0,1,.383,1.776c-.008.14-.015.283-.015.433a.451.451,0,0,0-.242.137.775.775,0,0,1-.495.231l1.1.552a1.4,1.4,0,0,1-.184.736,3.05,3.05,0,0,1,1.472.455c.065.035.127.068.184.1h0v-.736l0,0c.2.3.293.441.268.533-.019.073-.109.117-.273.2a2.224,2.224,0,0,0,.116.61,1.313,1.313,0,0,1,.069.311.782.782,0,0,0-.316.819.939.939,0,0,1-.052.47H77.5a1.387,1.387,0,0,0-.717.184,1.4,1.4,0,0,0,.737.184,2.215,2.215,0,0,0,.024.282c.035.27.065.5-.208.639-.368.184-.368.368-.368.736h-1.1c.092-.184.138-.276.115-.345s-.115-.115-.3-.207a.678.678,0,0,0,.184.552.96.96,0,0,0,.367.735c-.092.095-.232.234-.367.37l-.05.05-.318.318c.084.042.168.074.249.106a.927.927,0,0,1,.671.631.382.382,0,0,1,.256.344c-.011.16-.172.3-.44.392,0,.741-.382.925-.921,1.1-.092,0-.138.046-.23.138a3,3,0,0,1-.506.414.85.85,0,0,1,.921.552c.129.065.2.133.21.208.019.115-.1.231-.21.344-.367.092-.55.138-.576.228s.114.231.391.508a.588.588,0,0,0,.093.328A.123.123,0,0,0,75.5,65a1.2,1.2,0,0,0-.819.7,1.859,1.859,0,0,1-.286.409,2.322,2.322,0,0,0-.092-.553A2.322,2.322,0,0,1,74.208,65V63.528c-.942.189-1.109.574-1.289,1.473v-.01c0-1.118,0-2.385.369-2.753a.869.869,0,0,0,.268-.727.5.5,0,0,0-.268-.378.589.589,0,0,1-.452-.569,1.224,1.224,0,0,0-.1-.351,1.142,1.142,0,0,0-.369,1.473.89.89,0,0,1,.037,1.26c-.068.114-.145.244-.221.4a1.417,1.417,0,0,1,.552,1.289c-.074.368-.1.611.009.763.125.182.435.233,1,.326l.1.017a3.181,3.181,0,0,0-1.1,1.1.966.966,0,0,0,.277.184.969.969,0,0,1,.276.184c.161.054.293.093.4.124a1.065,1.065,0,0,1,.521.245,1.021,1.021,0,0,1,.452-.2,2.568,2.568,0,0,0,.469-.167c.1,0,.149-.116.2-.25a.863.863,0,0,1,.167-.3c.44.146.412.413.383.7a2.214,2.214,0,0,0-.015.224h-.737v.184a.985.985,0,0,0,.819.6.905.905,0,0,0,.286-.049,1.113,1.113,0,0,1,.184-.736,1.4,1.4,0,0,0,.736.184.647.647,0,0,1,.184-.368c.184,0,.184,0,.368.184a.608.608,0,0,0-.1.358c-.022.212-.046.453-.264.562a2.552,2.552,0,0,0-1,.4c-.1.057-.2.11-.286.153a1.13,1.13,0,0,0-.184,1.1c.184,0,.184.187.184.368,0,.092-.094.186-.184.277s-.184.184-.184.276l.369.737a2.574,2.574,0,0,0-.469-.167,1.023,1.023,0,0,1-.452-.2,1.967,1.967,0,0,1-.365,1.437,7.84,7.84,0,0,0-.371.772,4.021,4.021,0,0,0,.385.6c.1.137.211.291.352.5,0-.193.19-.552.369-.552a1.447,1.447,0,0,1,.184.552,2.578,2.578,0,0,0-1.018.812c-.093.1-.181.2-.271.293v-1.1H73.84a2.347,2.347,0,0,0-.184,1.1,1.442,1.442,0,0,0,.737.737,1.1,1.1,0,0,1-.242.173,2.165,2.165,0,0,0-.495.379,2.838,2.838,0,0,1,2.025,1.473,1.062,1.062,0,0,0,.5-.476,1.093,1.093,0,0,1,.976-.629c-.07.211-.113.392-.151.552a1.155,1.155,0,0,1-.218.553,1.512,1.512,0,0,0,.638.213.644.644,0,0,0,.467-.213,1.387,1.387,0,0,1,.92-.184h0a5.957,5.957,0,0,1-.042-1.685c.021-.284.042-.578.042-.893a.661.661,0,0,1,.069-.242A1.209,1.209,0,0,0,79,75.129c.368.368.368.554.368,1.1a6.473,6.473,0,0,1-.457,1.931c-.035.1-.067.193-.1.278v0h0c0,.36-.309.406-.582.447a.656.656,0,0,0-.338.1c.337.337.55.469.759.469.267,0,.531-.211,1.009-.594l.074-.059a1.773,1.773,0,0,0,.036.285,1.564,1.564,0,0,1-.405,1.556c-.054-.162-.092-.293-.123-.4A1.065,1.065,0,0,0,79,79.732a.628.628,0,0,0-.2-.037c-.2,0-.314.142-.454.322a1.884,1.884,0,0,1-.453.451,1.7,1.7,0,0,0-.529-.564,2.2,2.2,0,0,1-.208-.172.969.969,0,0,0-.184.276.969.969,0,0,1-.184.276,3.114,3.114,0,0,1,.916.366l0,0a1.718,1.718,0,0,0-.437.345c-.116.116-.207.207-.3.207v1.473c0,.184.187.184.368.184.151,0,.179-.157.208-.323.037-.205.078-.437.354-.437a.733.733,0,0,1,.175.024,1.112,1.112,0,0,0-.184.736.435.435,0,0,0,.391.276.793.793,0,0,0,.529-.276,5.768,5.768,0,0,1-.184-.735,5.743,5.743,0,0,0-.184-.738h.184c.181.181.367.368.552.368a.634.634,0,0,0,.29.076,1.279,1.279,0,0,0,.46-.128c.1-.041.217-.087.354-.132.151.227.021.519-.1.8a.973.973,0,0,0-.136.727.647.647,0,0,0,.424.312,18.15,18.15,0,0,0,2.21-2.762c.207.826.151,1.322-.184,1.657.183.275.369.414.553.414s.369-.139.552-.414a4.521,4.521,0,0,1,.821-1.247c.152-.189.309-.383.468-.594-.065-.1-.136-.189-.2-.278a1.162,1.162,0,0,1-.164-1.564,2.118,2.118,0,0,1,.594.326.88.88,0,0,0,.511.227c.221,0,.243-.2.265-.4a.582.582,0,0,1,.1-.339,9.187,9.187,0,0,0,1.26-1.658,12.53,12.53,0,0,1,.766-1.1c0-.184.187-.184.368-.184.384-.192.546-.387.369-.921a1.167,1.167,0,0,0,1.1-.921,5.569,5.569,0,0,1,1.1-2.025c0-.081.108-.127.245-.184a.873.873,0,0,0,.492-.368,4.91,4.91,0,0,1,.553-1.45,4.566,4.566,0,0,1,1.1-1.312.93.93,0,0,0,.184-.369.929.929,0,0,1,.184-.368l.184-.184a2.66,2.66,0,0,0,1.524-1.361,3.1,3.1,0,0,1,.686-.849,5.224,5.224,0,0,0,.176-.842,3.072,3.072,0,0,1,.192-.815,2.847,2.847,0,0,1,.737-1.1,2.882,2.882,0,0,0,.862-1.723,4.326,4.326,0,0,1,.427-1.223.68.68,0,0,0,.184-.552l-.184-.184a8.53,8.53,0,0,0-2.394,3.683l0,0c-.365-.366-.549-.55-.549-.734l-.09.178-.01.02c-.22.427-.22.427.079.708.057.053.126.119.206.2.368.184.368.558.368.921h-.077a1.871,1.871,0,0,0-1.028.184,2.889,2.889,0,0,1-1.1,1.737,5.9,5.9,0,0,0-.922,1.025v-.921a9.552,9.552,0,0,0,1.289-2.762c.362-.362.737-.736.737-1.1A3.949,3.949,0,0,1,96.3,59.661a3.75,3.75,0,0,0,1.473-2.578A1.628,1.628,0,0,1,98.7,55.61a.393.393,0,0,0,.369.368c.488-1.464.542-1.49,1.06-1.731.068-.032.144-.067.229-.11-.186-.929.39-1.3,1.1-1.657a1.915,1.915,0,0,1,.368-1.842,2.666,2.666,0,0,1,1-.765,7.087,7.087,0,0,0,.843-.524,3.809,3.809,0,0,0,.652-1.206,6.21,6.21,0,0,1,.821-1.556,5.8,5.8,0,0,0,1.164-2.034,11.883,11.883,0,0,1,.677-1.464,7.208,7.208,0,0,0,.736-.921,7.212,7.212,0,0,1,.737-.921,1.314,1.314,0,0,1,.069-.311,2.222,2.222,0,0,0,.116-.61,3.254,3.254,0,0,0,.921-1.473,9.579,9.579,0,0,1,.45-.921,4.2,4.2,0,0,0,.655-1.841,1.444,1.444,0,0,1,.184-.552c.3-.4.6-.75.926-1.122l0,0c.283-.326.576-.664.914-1.086a.647.647,0,0,1,.184-.368c0-.555,0-.921.368-1.1h.184a2.581,2.581,0,0,1,.532-1.739,3.071,3.071,0,0,0,.573-1.575c0-.355.173-.737.552-.737a1.211,1.211,0,0,1,.657.224c.081.047.165.1.264.145.061-.307.1-.618.143-.919a7.485,7.485,0,0,1,.41-1.843,2.892,2.892,0,0,1,.7-.738c.141-.12.286-.245.408-.367a.818.818,0,0,1,.168-.386c.061-.1.13-.211.2-.351a7.68,7.68,0,0,1,2.022-2.759l0,0c.369-.184.369-.184.369-.368a2.564,2.564,0,0,1,.677-1.206,2.045,2.045,0,0,0,.427-.636,3.608,3.608,0,0,1,.351-.15.969.969,0,0,0,.386-.218.962.962,0,0,1,.367-.736v0a.682.682,0,0,1,.185-.551,3.2,3.2,0,0,0,.921-2.578c0-.385.2-.562.552-.736.141-.141.3-.271.444-.4.435-.366.845-.713.845-1.261a2.757,2.757,0,0,1,.421-.158,3.061,3.061,0,0,0,.868-.395c.05-.125.1-.252.151-.385l0-.01a9.428,9.428,0,0,1,1.318-2.551.809.809,0,0,1,.4-.6,2.015,2.015,0,0,0,.154-.132l.552-.552a10.378,10.378,0,0,1,.368-1.105,10.389,10.389,0,0,0,.368-1.1l.184-.184.025-.025.344-.344a1.8,1.8,0,0,0,1.289-1.289.961.961,0,0,1,.368-.736c0-.174.365-.737.552-.737a1.4,1.4,0,0,0,.921-.368,1.842,1.842,0,0,1,1.842-.921,5.637,5.637,0,0,0,1.331-.2A4.689,4.689,0,0,1,138.1,0a1.479,1.479,0,0,1,.737.327,3.584,3.584,0,0,0,.368.225,14.971,14.971,0,0,0,3.867,1.842,1.115,1.115,0,0,0,.737.184,1.37,1.37,0,0,1,1.091.429,1.22,1.22,0,0,1,.2,1.045.815.815,0,0,0,.184.921,3.856,3.856,0,0,1,1.1,1.473,6.145,6.145,0,0,0,.7,1.776c.073.139.149.283.224.433a1.8,1.8,0,0,0,.27.372.849.849,0,0,1,.283.548,2.5,2.5,0,0,1-.049.426c-.068.39-.126.727.418.863a4.786,4.786,0,0,1-.621.713,2.543,2.543,0,0,0-.483.576.85.85,0,0,0-.552.921.914.914,0,0,1-.184.552l-.138.1a3.79,3.79,0,0,0-1.519,1.738,2.458,2.458,0,0,0-.792,1.177c-.045.11-.087.213-.129.3a.679.679,0,0,1-.184.552,4.7,4.7,0,0,1-1.473,1.842v0c.2.4.29.581.243.694-.039.095-.178.141-.429.225a11.948,11.948,0,0,1-1.1,3.867,10.441,10.441,0,0,1-1.2.736,10.455,10.455,0,0,0-1.2.737,2.968,2.968,0,0,1-.628.121c-.2,0-.337-.089-.661-.3a4,4,0,0,1,.741-1.212,2.491,2.491,0,0,0,.731-1.55h0a8.978,8.978,0,0,1,1.287-.551c.123-.739.248-1.322.369-1.886v0c.06-.279.122-.568.182-.872-.265-.265-.44-.44-.729-.44a1.2,1.2,0,0,0-.375.072,1.459,1.459,0,0,0-.921,1.1.657.657,0,0,1-.092.276.658.658,0,0,0-.092.277,2,2,0,0,1-.154.133.809.809,0,0,0-.4.6,3.521,3.521,0,0,1-.549,1.661c-.061.117-.124.237-.187.364v.184a6.693,6.693,0,0,0-.369,1.842.34.34,0,0,0-.092.276.341.341,0,0,1-.092.276l-.369.368a2.513,2.513,0,0,0-.069,1.565,2.538,2.538,0,0,0,1.174,1.013c0,.514-.274.581-.493.635a.516.516,0,0,0-.243.1,2.346,2.346,0,0,0-.737,1.1,3.728,3.728,0,0,1,.184.921.661.661,0,0,0-.276.092.658.658,0,0,1-.276.092.945.945,0,0,1-.735-.281.264.264,0,0,1,0-.271,1.388,1.388,0,0,0,.413-1.433,2.534,2.534,0,0,1-.045-.409,1.725,1.725,0,0,0,.369-2.025l-.39.236a12.431,12.431,0,0,1-2,1.053c-.184,0-.371.187-.552.369a9.258,9.258,0,0,0-.184,1.1,9.275,9.275,0,0,1-.184,1.107.807.807,0,0,0,.491-.231.609.609,0,0,1,.341-.178c.144,0,.289.13.457.409,0,.142-.162.2-.333.264s-.325.119-.365.251c-.03.1.018.234.146.406a1.2,1.2,0,0,1,.535-.2,2.5,2.5,0,0,0,.569-.172c-.184.921-.184.921-1.473,1.1a2.3,2.3,0,0,0-.068-.378,3.687,3.687,0,0,1-.116-.727,2.7,2.7,0,0,1-1.491,1.184,3.587,3.587,0,0,0-1.087.657c0,.193-.189.552-.368.552a10.777,10.777,0,0,0-1.534.8c-.3.177-.577.344-.86.486a2.42,2.42,0,0,0-.832,1.1c-.031.066-.06.129-.089.188a4.644,4.644,0,0,1-1.841,3.315,3.5,3.5,0,0,1-.862,1.011,3.67,3.67,0,0,0-.612.646,10.415,10.415,0,0,0-.736,2.21c-.108.108-.186.2-.248.276-.152.184-.229.276-.489.276a1.593,1.593,0,0,0-1.352.91,2.053,2.053,0,0,1-.49.563,3.413,3.413,0,0,0-.294.339,2.275,2.275,0,0,1-.627.582,30.372,30.372,0,0,1-2.394,2.21v-3.13c0-.367,0-.921.552-1.1a4.06,4.06,0,0,0-.552-.921c.183-.367.369-.552.552-.552v-.184c-.552-.368-.552-.909-.552-1.657V36.644c-.021.144-.041.283-.061.419v.006a9.772,9.772,0,0,0-.122,3.073,9,9,0,0,1-.092,1.1,9,9,0,0,0-.092,1.1,14,14,0,0,1-.184,2.762v.552a3.035,3.035,0,0,1,.15,1.492,3.8,3.8,0,0,0,.034,1.086,4.208,4.208,0,0,1-.138,1.864,3.012,3.012,0,0,1-.967,1.45,10.806,10.806,0,0,1-.8,1.532c-.177.3-.345.578-.487.862v1.289a4.163,4.163,0,0,1-.184,2.946,6.359,6.359,0,0,0-.184,1.657,5.448,5.448,0,0,1-.369,2.578l0,0a1.574,1.574,0,0,0-.55.919,3.312,3.312,0,0,1-.919,1.287l0,0a6.892,6.892,0,0,0-1.1,1.285,4.256,4.256,0,0,1-1.473,2.21.241.241,0,0,0-.184.092.24.24,0,0,1-.184.092c-.181.543-.369,1.1-1.1,1.1a4.542,4.542,0,0,1-1.657.737,1.021,1.021,0,0,0-.2.452,2.567,2.567,0,0,1-.167.469,2.346,2.346,0,0,1-1.1.737c-.071,0-.148-.007-.229-.014s-.177-.016-.266-.016a.562.562,0,0,0-.609.4c0,.182-.547.367-.552.369a1.18,1.18,0,0,0-.446-.087,2.41,2.41,0,0,0-1.052.339,2.117,2.117,0,0,1-.9.3c-.184,0-.184,0-.368-.368a.362.362,0,0,0-.368.368V74.76a1.259,1.259,0,0,0,.314.094c.155.032.288.059.338.162s.015.249-.1.481a.929.929,0,0,0-.368-.184.932.932,0,0,1-.368-.184c-.259.389-.064.593.205.875a3.038,3.038,0,0,1,.347.413.916.916,0,0,1-.628.327.979.979,0,0,1-.5-.186.73.73,0,0,0-.345-.141,1.389,1.389,0,0,0-.184.921h.552a2.527,2.527,0,0,1-.184,2.762,3.23,3.23,0,0,0-.736-.921c-.181,0-.367.364-.369.368a1.434,1.434,0,0,1-.092.368,1.433,1.433,0,0,0-.092.368h-1.1c-.276.552-.414.829-.645.829s-.553-.277-1.2-.829c0,.515.071.861.437,1.1a5.783,5.783,0,0,0,1.957.552,2.533,2.533,0,0,1-.921,2.394.647.647,0,0,0-.368.184,2.164,2.164,0,0,1-.5,1.552,3.131,3.131,0,0,0-.423.842h-.921c-.372.093-.619.187-.7.371-.072.157-.027.377.152.734.368.552.368.552-.369,1.1v0a7.673,7.673,0,0,1-.735-1.839h0a1.359,1.359,0,0,0,.456-.092,1.367,1.367,0,0,1,.46-.092.921.921,0,0,1-.409-.368,1.131,1.131,0,0,0-.143-.184l-.232.132-.006,0c-1.074.608-1.212.686-.867,1.891a.679.679,0,0,0-.552-.184.577.577,0,0,1-.05.2c-.024.064-.044.114-.024.143s.036.024.074.024a1.442,1.442,0,0,1,.184,1.473v1.1a.967.967,0,0,1,.276-.184.968.968,0,0,0,.277-.184c0,.092.094.186.184.276s.184.184.184.276a4.03,4.03,0,0,0-.74,1.164,5.588,5.588,0,0,1-.364.677,12.966,12.966,0,0,1-1.657,1.289.85.85,0,0,0-.552.921,2.039,2.039,0,0,1-.552,1.657,1.212,1.212,0,0,0-.092.576,2.1,2.1,0,0,1-.092.714,2.433,2.433,0,0,0-.641-.592,1.546,1.546,0,0,1-.648-.7c.092-.046.181-.089.267-.131l.008,0a2.5,2.5,0,0,0,1.382-1.154.961.961,0,0,0-.737-.369c.092-.368.185-.648.276-.919s.185-.554.277-.923l-.005.01c-.36.538-.732,1.1-.915,1.1-.141.07-.253.14-.352.2a.816.816,0,0,1-.385.167c-.736,0-.736,0-.736,1.1.736,0,.736,0,.921.921a11.608,11.608,0,0,0-1.65.733l-.008,0a2.473,2.473,0,0,1-.184.921c-.184-.368-.558-.368-.921-.368v.737c.211.211.3.38.267.516-.046.193-.339.306-.635.405.144.36.291.67.421.944a6.675,6.675,0,0,1,.5,1.266.628.628,0,0,1-.2.036c-.2,0-.314-.142-.454-.322a1.882,1.882,0,0,0-.453-.451,1.057,1.057,0,0,1-.172.536.607.607,0,0,0-.012.754c.106.053.155.108.143.16-.029.122-.39.208-.879.208a2.222,2.222,0,0,1,.116-.61,1.314,1.314,0,0,0,.069-.31,1.207,1.207,0,0,0-.53-.138.539.539,0,0,0-.391.138,1.52,1.52,0,0,0-.184,1.289c.367.368.368.737.184,1.657a5.069,5.069,0,0,0-.2-.5,1.368,1.368,0,0,1-.168-.6c-.267.089-.361.347-.451.6s-.184.508-.469.508a3.865,3.865,0,0,0-.368-.552,3.863,3.863,0,0,1-.369-.553c-.122.061-.226.123-.326.183a3.492,3.492,0,0,1-.779.369c0,.508.349.578.6.628Zm1.79-3.391c-.193,0-.552.189-.552.369h0a2.571,2.571,0,0,1,.55.367l0,0c.18-.18.366-.366.366-.55Zm-1.1-1.289v.552h.184v-.552Zm-.552-3.315h0v.184a.846.846,0,0,1,.3.066.672.672,0,0,0,.223.054c.137,0,.261-.094.4-.3Zm5.892-.552a.252.252,0,0,0-.259.135c-.061.147.041.383.259.6Zm3.683-3.13h0v.552h.184v-.552Zm6.124-8.921a.311.311,0,0,0-.232.082h0a.109.109,0,0,0-.1.073c-.054.131.027.4.289.663a2.162,2.162,0,0,0,.38-.5,1.1,1.1,0,0,1,.173-.242,1.041,1.041,0,0,1-.207-.035A1.373,1.373,0,0,0,94.327,84.806Zm-1.889-2.864h0c.105.21-.032.424-.165.631a.969.969,0,0,0-.2.473c0,.571.206.737.921.737a2.165,2.165,0,0,0,.106.669,1.476,1.476,0,0,1,.078.435c.921-.552.921-.552.921-1.841-.138.276-.482.345-.957.44-.156.031-.332.066-.516.112,0-.368,0-.553.368-.737,0-.551,0-.736.184-.921h-.737ZM78.4,83.379a3.252,3.252,0,0,0-.879.22c.087.044.184.087.287.133a3.266,3.266,0,0,1,1,.6,2.152,2.152,0,0,0-.079-.741A.315.315,0,0,0,78.4,83.379Zm3.908-.7h0a.181.181,0,0,1-.184.184.658.658,0,0,0,.092.276.658.658,0,0,1,.092.276l.007,0a1.751,1.751,0,0,1,.546-.18Zm13.258-.552c-.3.4-.436.581-.412.723.021.121.159.213.412.382v-1.1ZM96.121,79c-.3,0-.356.123-.466.368-.025.055-.052.116-.086.184a1.129,1.129,0,0,0,.339.072c.19,0,.245-.119.338-.317.017-.037.037-.079.059-.124a.215.215,0,0,0-.054-.135A.175.175,0,0,0,96.121,79Zm.368-.736h0a.956.956,0,0,1,.184.276.969.969,0,0,0,.184.276C96.857,78.443,96.857,78.443,96.489,78.26ZM94.1,77.523c-.737.552-.737.552-.369,1.1C94.1,78.259,94.1,78.259,94.1,77.523Zm1.473-.736h0a.657.657,0,0,1-.092.276.658.658,0,0,0-.092.277c.257,0,.494-.088.519-.192.014-.059-.038-.12-.15-.176a.176.176,0,0,0-.048-.129A.215.215,0,0,0,95.568,76.786Zm.921-2.026c-.69.414-.553.827-.362,1.4a5.165,5.165,0,0,1,.178.627,1.484,1.484,0,0,0,.92-.46,1.484,1.484,0,0,1,.921-.461v-.736l0,0a2.57,2.57,0,0,1-.734.549c-.174-.522-.352-.921-.921-.921Zm-1.658.737h0c-.092.183-.232.417-.367.642s-.277.462-.369.647c.9-.151.821-.673.762-1.055a1.642,1.642,0,0,1-.026-.234Zm3.131-1.841a.181.181,0,0,0-.184.184v.921a1.4,1.4,0,0,0,.368-.736C98.146,73.84,98.146,73.84,97.962,73.656Zm-23.938-.921c-.312.468-.225.541-.083.662.027.023.054.046.083.074ZM72.735,72v.736h.184V72Zm1.289-1.473a3.206,3.206,0,0,0-.184.46,3.191,3.191,0,0,1-.185.461c-.16.107-.238.2-.239.3,0,.128.143.23.271.319a1.209,1.209,0,0,1,.153.119,4.464,4.464,0,0,1,.61-.495,2.524,2.524,0,0,0,.31-.241.775.775,0,0,1,.231-.495.45.45,0,0,0,.137-.242h0C74.573,70.71,74.208,70.709,74.024,70.525Zm-1.289-.552v.369h.184v-.369Zm1.289-1.1h.369a.922.922,0,0,1-.015.56c-.065.3-.133.619.2.729,0-.184.183-.367.549-.733l0,0c.184-.184.369-.184.737-.184v-.369H74.392V68.5l-.16-.16,0,0-.572-.572h-.02a1,1,0,0,0-.9.368v.921a2.842,2.842,0,0,1,.287.021,3.4,3.4,0,0,0,.358.025.852.852,0,0,0,.644-.23Zm25.964-.552a1.447,1.447,0,0,0-.1.532,1.812,1.812,0,0,1-.264.942.68.68,0,0,1,.552.184V68.5ZM100.724,65h0c-.547.729-.564.907.369,2.025a1.932,1.932,0,0,0-.17-1.22,2.055,2.055,0,0,1-.2-.805Zm4.182.2a.629.629,0,0,0-.5.349,1.857,1.857,0,0,0,.29.394,1.935,1.935,0,0,1,.447.711c.418-.313.629-.593.609-.81a.376.376,0,0,0-.241-.3A.933.933,0,0,0,104.906,65.205ZM66.658,64.08a.181.181,0,0,0-.184.184l.184.184a1.447,1.447,0,0,0,.552-.184.564.564,0,0,1-.379-.116A.276.276,0,0,0,66.658,64.08Zm39.222-1.289h0a1.558,1.558,0,0,0-1.24,1l0,.006-.046.1a.218.218,0,0,0-.046.276,1.224,1.224,0,0,0,.23.276c.123-.183.226-.349.327-.509.2-.323.41-.656.779-1.148Zm3.338-.829c-.069,0-.115.092-.207.276h.552C109.379,62.055,109.287,61.963,109.218,61.963ZM71.63,58.188h0c-.55.55-.367.924,0,1.473.1-.1.206-.192.3-.27.174-.15.3-.259.3-.36a.142.142,0,0,0-.049-.107c0-.184-.183-.367-.549-.733l0,0Zm38.117.921a.184.184,0,1,0,0,.368h.368c0-.092,0-.138-.023-.161s-.069-.023-.161-.023a.176.176,0,0,0-.048-.129A.214.214,0,0,0,109.747,59.109Zm-37.2-.921a1.09,1.09,0,0,0,.184,1.289.687.687,0,0,0,.251-.6A1.322,1.322,0,0,0,72.551,58.188Zm26.884-.736h0c-.368.368-.368.545-.368,1.289.593-.593.527-.97.368-1.289Zm-26.7-6.629c-.092.277-.186.606-.277.924s-.183.642-.275.917a.3.3,0,0,0,.029.123c.032.076.047.114-.213.245a.54.54,0,0,0-.41.423.76.76,0,0,0,.41.681.721.721,0,0,1,.169.684.825.825,0,0,1-.537.6,15.4,15.4,0,0,1,.736,2.762l.366-.366.009-.009.362-.362a.932.932,0,0,0,.368.184.931.931,0,0,1,.369.184,1.339,1.339,0,0,0,.368-1.473c-.184.092-.417.232-.643.367s-.461.277-.646.369a3.253,3.253,0,0,0,.184-1.1,2.742,2.742,0,0,1,1.1-.184v-1.1c-.184.184-.55.184-1.1.184.055-.165.093-.313.131-.456a2.93,2.93,0,0,1,.422-1.018l-.085-.085-.652-.651a4.59,4.59,0,0,1,.242-.415,9.018,9.018,0,0,0,.495-.874,2.567,2.567,0,0,1,.167.469,1.02,1.02,0,0,0,.2.451,1.979,1.979,0,0,1,.551-.919c.3-.2.416-.331.416-.462s-.12-.264-.414-.46h-.184a.661.661,0,0,1-.069.241,1.209,1.209,0,0,0-.116.495,3.471,3.471,0,0,1-1.473-.368h0Zm37.2,5.743c-.12,0-.186.184-.186.518a5.05,5.05,0,0,0-.737.921,4.011,4.011,0,0,1,.553-.3.991.991,0,0,0,.552-.435c.182,0,.184-.364.184-.368C110.152,56.678,110.029,56.566,109.933,56.566Zm-1.291-.035a.564.564,0,0,1-.116.379.276.276,0,0,0-.069.173.181.181,0,0,1,.184.184c0-.179.36-.368.552-.368-.076,0-.121-.064-.174-.137A.431.431,0,0,0,108.642,56.531Zm-8.1-1.841c-.749,1.123-.731,1.305-.369,2.394a4.09,4.09,0,0,1,.345-.874,1.43,1.43,0,0,0,.207-.6c.088-.044.136-.089.152-.142.024-.083-.033-.18-.113-.315A2.32,2.32,0,0,1,100.54,54.69Zm-25.411-.368c0,.927.2,1.107.921,1.289a.241.241,0,0,1,.092-.184.24.24,0,0,0,.092-.184,1.212,1.212,0,0,0-.115-.495.664.664,0,0,1-.069-.242,1.316,1.316,0,0,1-.31-.068A2.228,2.228,0,0,0,75.129,54.321Zm27.805-.184a.241.241,0,0,1-.092.184.24.24,0,0,0-.092.184h.184a.586.586,0,0,1,.184-.368Zm9.206-1.059a.8.8,0,0,0-.736.322,2.029,2.029,0,0,0,.8.377c.224,0,.364-.233.671-.744a.784.784,0,0,1-.335.057c-.063,0-.127,0-.195-.006S112.211,53.078,112.14,53.078Zm-37.408-5.09a.4.4,0,0,0-.354.143.3.3,0,0,0,.015.3,1.258,1.258,0,0,1-.174,1.018,3.846,3.846,0,0,0-.195.455,1.4,1.4,0,0,1,.737-.184.914.914,0,0,1,.184-.368.913.913,0,0,0,.184-.368c-.177-.044-.28-.112-.315-.206-.055-.15.081-.338.189-.489a.562.562,0,0,0,.125-.226A1.291,1.291,0,0,0,74.731,47.988Zm-2.181-.112h0s-.1.1-.079.153c.009.021.035.031.079.031a2.351,2.351,0,0,1-.184,1.289c0,.184.187.371.367.551h.185V48.06a.643.643,0,0,0-.368-.184Zm1.289-1.1a1.312,1.312,0,0,1-.069.31,2.225,2.225,0,0,0-.116.611,1.442,1.442,0,0,1,.552-.184c.093-.28.1-.475.01-.595A.434.434,0,0,0,73.84,46.772ZM73.1,44.93c-.184.184-.184.184-.368.184a1.433,1.433,0,0,0,.092.368,1.436,1.436,0,0,1,.092.368h.026c.188,0,.343-.014.343-.183a1.209,1.209,0,0,0-.116-.495A.662.662,0,0,1,73.1,44.93Zm-.737-.736h0c0,.184.188.371.369.551V42.9a.807.807,0,0,1-.184.552,1.491,1.491,0,0,1-.291.03,1.663,1.663,0,0,1-.768-.214l-.07-.035a1.209,1.209,0,0,0-.532-.179.561.561,0,0,0-.181.03,6.545,6.545,0,0,0,.736,1.657,4.041,4.041,0,0,1,.92-.552ZM75.7,42.467a.273.273,0,0,0-.2.069.966.966,0,0,1,.217.384,3.584,3.584,0,0,0,.151.352,1.373,1.373,0,0,0,.46-.092,1.371,1.371,0,0,1,.461-.092A1.84,1.84,0,0,0,75.7,42.467Zm2.192-1.772a5.9,5.9,0,0,0-.167.637,2.688,2.688,0,0,1-.2.653h0c.444,0,.7-.086.787-.264C78.414,41.511,78.276,41.176,77.891,40.695Zm-2.025-1.1c-.664.443-1.017.9-.993,1.282a.692.692,0,0,0,.441.559l.028-.168v-.006c.157-.953.186-1.125.708-1.3a1.324,1.324,0,0,0,.6.158,1.71,1.71,0,0,0,.705-.2c.113-.05.23-.1.356-.144a1.4,1.4,0,0,0-.736-.184,1.021,1.021,0,0,1-.452.2,2.575,2.575,0,0,0-.468.167.242.242,0,0,0-.092-.184A.24.24,0,0,1,75.865,39.59Zm2.025-3.5v.736c-.141.07-.253.14-.351.2a.817.817,0,0,1-.385.168l0,.008a3.106,3.106,0,0,1,.364.912c0,.736,0,.736.552.736.368,0,.368,0,.552.369a.24.24,0,0,1-.092.184.24.24,0,0,0-.092.184c-.183.092-.276.185-.276.276s.093.184.276.276H79a.679.679,0,0,0,.184-.552,2.724,2.724,0,0,1,0-2.394l-.552-.552A.928.928,0,0,1,79,36.46a.929.929,0,0,0,.368-.184l.184-.368c-.435-.725-.07-.994.283-1.254a2.374,2.374,0,0,0,.269-.219,3.484,3.484,0,0,0-.778.369c-.1.06-.2.122-.327.184a1.684,1.684,0,0,1,.552-1.657v.552h.076c.491,0,.67-.009.845-.184a1.665,1.665,0,0,0-.477-.946c-.267-.337-.542-.686-.444-1.079H79a4.145,4.145,0,0,0-.184-1.289,4.047,4.047,0,0,0,1.473.184v1.289c.442,0,.487-.2.53-.4a.426.426,0,0,1,.206-.339,2.615,2.615,0,0,0-.552-.921c-.351-.07-.644-.14-.9-.2a4.673,4.673,0,0,0-.938-.168v0c0,.182,0,.734-.185.917a1.659,1.659,0,0,0,0,2.025,2.168,2.168,0,0,0,.379-.495A1.1,1.1,0,0,1,79,32.04c-.184,1.1-.184,1.1-1.1,1.657a.644.644,0,0,0-.379.441.557.557,0,0,0,.2.479,4.92,4.92,0,0,0,1.1.921v.552ZM62.423,38.669v1.473h.184V38.669ZM80.1,38.485c-.007,0-.176.089-.163.142.007.028.061.042.163.042a.16.16,0,0,0,.043.118.489.489,0,0,0,.325.066.18.18,0,0,1,.184-.184A.679.679,0,0,0,80.1,38.485Zm-4.419-.552a4.06,4.06,0,0,0,.276.46,4.055,4.055,0,0,1,.276.461,1.127,1.127,0,0,0,.143-.184.922.922,0,0,1,.409-.368c-.211-.07-.366-.113-.5-.151A2.913,2.913,0,0,1,75.681,37.933Zm5.156-2.394c-.092,0-.139.094-.184.184s-.092.184-.184.184a.181.181,0,0,1,.184.184h.025c.16,0,.174-.007.528-.184C81.023,35.907,80.839,35.543,80.837,35.539Zm-.112-.993a.592.592,0,0,0-.256.072c.092,0,.138.046.207.115a1.206,1.206,0,0,0,.345.253.517.517,0,0,0-.112-.368A.25.25,0,0,0,80.725,34.546ZM76.97,32.04h0c-.184.184-.738.184-.921.184v1.289a2.01,2.01,0,0,0,.921.184,1.4,1.4,0,0,1-.139.537c-.114.278-.213.517.139.752.388-.388.345-.775-.184-1.657a.575.575,0,0,1,.174-.338.639.639,0,0,0,.01-.951Zm49.9-.921a3.1,3.1,0,0,1-.053.474,2.327,2.327,0,0,0,.237,1.736c0-.243.013-.47.025-.69A2.444,2.444,0,0,0,126.872,31.12Zm-54.137.737h0v1.1A1.175,1.175,0,0,0,72.735,31.857Zm4.235-3.5h0l.368.368a1.442,1.442,0,0,1-.552.184,3.263,3.263,0,0,0-.362.736,1.015,1.015,0,0,1-.19.369,2.736,2.736,0,0,0,1.1.184l0-.011a12.693,12.693,0,0,1,.549-1.463A4.708,4.708,0,0,1,76.971,28.358ZM79,28.726a1.157,1.157,0,0,1-.064.325c-.075.251-.139.467.248.6a.576.576,0,0,0,.368-.184A.428.428,0,0,0,79.6,29.1C79.535,28.959,79.356,28.846,79,28.726Zm-3.315-.184h0c-.116.116-.165.2-.156.268s.084.115.171.165a.8.8,0,0,1,.17.119.677.677,0,0,0-.184-.552Zm51.191-3.314h0V28.91a3.994,3.994,0,0,0,.276-1.772A5.062,5.062,0,0,0,126.872,25.228Zm-45.581,2.14a1.935,1.935,0,0,0-.455.069,1.711,1.711,0,0,0,.61.379.938.938,0,0,1,.311.173.726.726,0,0,0-.14-.517A.429.429,0,0,0,81.292,27.368ZM75.313,22.1a5.1,5.1,0,0,1-.092.829,5.1,5.1,0,0,0-.092.829.586.586,0,0,0,.552.552h.737a1.442,1.442,0,0,0,.736-.737,1.4,1.4,0,0,1-.921-.368c-.184-.184-.184-.738-.184-1.1Zm-1.1.184a.181.181,0,0,0-.184.184h0c-.036,0-.058.008-.067.024-.022.039.028.124.1.252.044.075.1.168.152.276a.564.564,0,0,1,.116-.379.276.276,0,0,0,.069-.173A.181.181,0,0,0,74.208,22.281Zm3.11-.4c-.255,0-.29.184-.327.378-.029.155-.059.315-.205.388h0c.548,0,.733-.186.733-.736A.864.864,0,0,0,77.318,21.883Zm.757-1.076a1.418,1.418,0,0,0-.369.552.215.215,0,0,0,.054.135.175.175,0,0,0,.131.049c0-.106.062-.152.184-.241a2.886,2.886,0,0,0,.368-.311h0C78.354,20.99,78.075,20.967,78.075,20.808Zm-1.9-1.01c-.167,0-.365.258-.492.641a1.319,1.319,0,0,0,.552,1.1,1.518,1.518,0,0,1,.921-.921,2.532,2.532,0,0,0-.736-.552C76.358,19.893,76.274,19.8,76.174,19.8Zm2.27-.832a1.05,1.05,0,0,1-.311.613c-.13.159-.253.31-.231.452a.346.346,0,0,0,.174.224,1.55,1.55,0,0,0,1.289.369A1.93,1.93,0,0,0,78.443,18.967Zm-1.1,1.013c-.092,0-.184.092-.368.276h.736C77.523,20.072,77.431,19.979,77.338,19.979Zm64.449-2.3a1.106,1.106,0,0,0-.981.576,1.257,1.257,0,0,1-.124.161c0,.184.187.371.368.552A2.971,2.971,0,0,0,141.787,17.677ZM77.523,15.284c-.367.183-.552.369-.552.552h0c-.042,0-.067.01-.076.031-.021.051.075.148.079.153a.155.155,0,0,0,.116.161.864.864,0,0,0,.252.023A.815.815,0,0,0,77.523,15.284ZM76.05,15.1a.847.847,0,0,1-.389.286c-.189.095-.385.192-.411.355-.02.125.061.277.247.464C76.05,16.02,76.05,15.466,76.05,15.1Zm67.715-3.925c-.079,0-.169.091-.32.242-.1.2-.207.4-.311.6v0a6.292,6.292,0,0,0-.977,2.9,2.213,2.213,0,0,1-.024.282c-.035.269-.065.5.208.639a7.342,7.342,0,0,1,.736-.552.42.42,0,0,1-.2-.27.883.883,0,0,1,.249-.6.6.6,0,0,0,.135-.237l.368-.369a6.934,6.934,0,0,0,.184-1.841.241.241,0,0,0,.184-.092.24.24,0,0,1,.184-.092C143.965,11.354,143.876,11.175,143.765,11.175ZM85.072,102.382h0l-.183-.184a.817.817,0,0,0,.184-.543c0,.036.012.356.182.359-.181,0-.181.188-.181.367Zm-1.289-.737h0c.128-.639.166-.832.6-.832a7.276,7.276,0,0,1,.869.1c-.112.056-.243.113-.381.173a6.761,6.761,0,0,0-1.091.563Zm3.867-1.1h-.184a1.719,1.719,0,0,1,.345-.437c.116-.116.207-.207.207-.3.184,0,.184,0,.184.184,0,.106-.062.151-.184.241a2.88,2.88,0,0,0-.368.311Zm-2.025,0h0c0-.037-.011-.365-.184-.365a3.425,3.425,0,0,0,.737-1.657c.368.245.462.468.476.612a.376.376,0,0,1-.108.308c-.1.1-.191.179-.283.259A1.808,1.808,0,0,0,85.626,100.538Zm3.129-.918h-.184c0-.182,0-.368.184-.368v.368Zm3.13-9.207h0c-.184,0-.184,0-.184-.184a1.389,1.389,0,0,1-.184-.921,2.316,2.316,0,0,1,.552.368,1.432,1.432,0,0,1-.092.368,1.436,1.436,0,0,0-.092.368Zm1.289-2.578H92.99a2.649,2.649,0,0,0,.368-.552h.008c.177,0,.177.005.177.368a.241.241,0,0,0-.184.092A.24.24,0,0,1,93.175,87.835ZM75.681,77.523c-.372,0-.411-.256-.451-.527a1.308,1.308,0,0,0-.1-.393,1.729,1.729,0,0,1,.524-.11c.271,0,.4.152.4.478a.264.264,0,0,1,.047.3A.438.438,0,0,1,75.681,77.523Zm1.961-.664c-.1,0-.207-.148-.3-.441h.552V76.6C77.806,76.772,77.722,76.859,77.643,76.859Zm24-.072h0l-.552-.552h.184c.107,0,.285,0,.37.117a.491.491,0,0,1,0,.434ZM90.6,69.052h0a1.947,1.947,0,0,1,.92-.367C91.517,69.052,91.517,69.052,90.6,69.052ZM77.338,67.211h0a.668.668,0,0,1-.276-.092.658.658,0,0,0-.276-.092A.968.968,0,0,0,77,66.641a3.613,3.613,0,0,1,.151-.351l.184.369v.552Zm.737-1.1h0c-.552-.552-.552-.552,0-1.473v1.472ZM75.5,65.922h0V65a1.4,1.4,0,0,1,.736.184,1.44,1.44,0,0,1-.736.736Zm1.658-1.495h0c0-.163-.007-.163-.184-.163l.184-.184a.18.18,0,0,1,.184.184A.182.182,0,0,0,77.155,64.427Zm-.185-.9h0c-.375-.375-.563-.563-.551-.727s.192-.291.552-.561v1.288Zm.183-3.316c-.181-.363-.365-.367-.367-.367.184-.184.184-.184.184-.368a.24.24,0,0,1,.184.092.24.24,0,0,0,.184.092c-.184.184-.184.184-.184.55Zm.373-.923h0c.241-.366-.008-.573-.248-.773a1.156,1.156,0,0,1-.307-.328h1.1a.005.005,0,0,1,0,0,.9.9,0,0,1-.185.549C77.891,58.925,77.705,59.11,77.526,59.29ZM78.075,58h0v-.736h0c.251.084.389.131.408.21s-.114.228-.411.525Zm1.289-1.1H79a1.4,1.4,0,0,0,.184-.737h.184V56.9Zm-16.2-5.524h-.184a.644.644,0,0,1-.184-.368.181.181,0,0,0,.184-.182.665.665,0,0,0,.092.274.659.659,0,0,1,.092.276Zm59.477-2.946h-.184v-.737c.285.143.238.4.2.589a.9.9,0,0,0-.02.148Zm1.289-1.842h0a.241.241,0,0,0-.092-.183.24.24,0,0,1-.092-.184l.184-.184c0,.114.07.157.168.217a1.022,1.022,0,0,1,.2.151.652.652,0,0,0-.367.183Zm2.025-2.21h0l-.384-.384-.352-.352h0a1.2,1.2,0,0,0,.49-.115.661.661,0,0,1,.242-.069v.919Zm5.34-6.629h-.184V37.2a1.112,1.112,0,0,1,.736-.184.884.884,0,0,0-.157.263.858.858,0,0,1-.4.474Zm1.473-2.762h0c0-.18,0-.366-.182-.367h.032c.15,0,.15-.01.15-.183.184.184.184.184.184.368l-.183.183Zm1.289-4.788h-.368a.969.969,0,0,0,.184-.276.965.965,0,0,1,.184-.277h.184a.679.679,0,0,1-.184.552Zm3.13-3.13a.815.815,0,0,1-.385-.168c-.1-.061-.211-.13-.352-.2a1.4,1.4,0,0,1,.184-.736A.648.648,0,0,0,137,25.78a1.7,1.7,0,0,1,.564.53,2.2,2.2,0,0,0,.172.207c.087,0,.141.021.158.062.043.1-.156.3-.158.306A.679.679,0,0,1,137.184,27.069Zm6.628-7.921c-.183-.55-.183-.55.185-.918V18.6a.658.658,0,0,1-.092.277.666.666,0,0,0-.092.273Zm-.552-4.969h-.368v-.552a.965.965,0,0,1,.184.276.971.971,0,0,0,.184.276Z" transform="translate(0 0)" fill="#fc307b" stroke="rgba(0,0,0,0)" stroke-miterlimit="10" stroke-width="1"/>
      </g>
    </g>
    <g id="Groupe_450" data-name="Groupe 450" transform="translate(80.968 854.968)">
      <circle id="Ellipse_92" data-name="Ellipse 92" cx="20.907" cy="20.907" r="20.907" transform="translate(6.727 7.189)"/>
      <path id="Soustraction_24" data-name="Soustraction 24" d="M28.087,56.062A28.031,28.031,0,0,1,8.182,8.236,28.045,28.045,0,0,1,56.053,28.058a27.937,27.937,0,0,1-27.966,28ZM22.749,16.315H22.7a3,3,0,0,0-2.957,3.013L19.753,36.9a3.019,3.019,0,0,0,2.96,3.011h.051a2.959,2.959,0,0,0,1.5-.408l15.173-8.783a2.961,2.961,0,0,0,1.125-1.139,3,3,0,0,0-1.127-4.069L24.248,16.724A3,3,0,0,0,22.749,16.315Z" transform="translate(0.032 0.032)" fill="url(#linear-gradient-2)"/>
    </g>
  </g>
</svg>
